<?xml version="1.0" encoding="UTF-8"?>
<svg xmlns="http://www.w3.org/2000/svg" viewBox="0 0 1200 420" width="1200" height="420">
<defs>
<linearGradient id="bg" x1="0" y1="0" x2="1" y2="1">
<stop offset="0%" stop-color="#020617"/><stop offset="100%" stop-color="#0B1830"/>
</linearGradient>
<radialGradient id="glow" cx="20%" cy="15%" r="60%">
<stop offset="0%" stop-color="#3B82F6" stop-opacity=".18"/>
<stop offset="100%" stop-color="#3B82F6" stop-opacity="0"/>
</radialGradient>
</defs>
<rect width="1200" height="420" rx="28" fill="url(#bg)"/>
<rect width="1200" height="420" rx="28" fill="url(#glow)"/>
<g stroke="#60A5FA" stroke-opacity=".05"><line x1="80" y1="0" x2="80" y2="420"/>
<line x1="160" y1="0" x2="160" y2="420"/>
<line x1="240" y1="0" x2="240" y2="420"/>
<line x1="320" y1="0" x2="320" y2="420"/>
<line x1="400" y1="0" x2="400" y2="420"/>
<line x1="480" y1="0" x2="480" y2="420"/>
<line x1="560" y1="0" x2="560" y2="420"/>
<line x1="640" y1="0" x2="640" y2="420"/>
<line x1="720" y1="0" x2="720" y2="420"/>
<line x1="800" y1="0" x2="800" y2="420"/>
<line x1="880" y1="0" x2="880" y2="420"/>
<line x1="960" y1="0" x2="960" y2="420"/>
<line x1="1040" y1="0" x2="1040" y2="420"/>
<line x1="1120" y1="0" x2="1120" y2="420"/>
<line x1="0" y1="60" x2="1200" y2="60"/>
<line x1="0" y1="120" x2="1200" y2="120"/>
<line x1="0" y1="180" x2="1200" y2="180"/>
<line x1="0" y1="240" x2="1200" y2="240"/>
<line x1="0" y1="300" x2="1200" y2="300"/>
<line x1="0" y1="360" x2="1200" y2="360"/>

</g>
<text x="90" y="78" fill="#60A5FA" font-family="Inter,Arial" font-size="12" letter-spacing="6">ABOUT</text>
<text x="90" y="145" fill="#FFFFFF" font-family="Inter,Arial" font-size="46" font-weight="700">Frontend Engineer</text>
<text x="90" y="185" fill="#CBD5E1" font-family="Inter,Arial" font-size="17">
<tspan x="90" dy="0">Building premium web experiences with modern UI,</tspan>
<tspan x="90" dy="28">clean architecture, smooth animations and AI integrations.</tspan>
</text>
<line x1="90" y1="245" x2="500" y2="245" stroke="#3B82F6" stroke-opacity=".4"/>
<g fill="#E5E7EB" font-family="Inter,Arial" font-size="15">
<text x="90" y="290">React</text><text x="180" y="290">Next.js</text>
<text x="300" y="290">TypeScript</text><text x="460" y="290">GSAP</text>
<text x="560" y="290">Three.js</text><text x="700" y="290">AI</text>
</g>
<circle cx="980" cy="170" r="70" fill="none" stroke="#3B82F6" stroke-opacity=".25"/>
<circle cx="980" cy="170" r="4" fill="#60A5FA">
<animate attributeName="cy" values="170;160;170" dur="4s" repeatCount="indefinite"/>
</circle>
</svg>