<svg width="1200" height="420" viewBox="0 0 1200 420" xmlns="http://www.w3.org/2000/svg">

<defs>

<linearGradient id="bg" x1="0%" y1="0%" x2="100%" y2="100%">
<stop offset="0%" stop-color="#050816"/>
<stop offset="100%" stop-color="#08122d"/>
</linearGradient>

<linearGradient id="line" x1="0%" y1="0%" x2="100%">
<stop offset="0%" stop-color="#3b82f6"/>
<stop offset="100%" stop-color="#60a5fa"/>
</linearGradient>

<filter id="blur">
<feGaussianBlur stdDeviation="50"/>
</filter>

</defs>

<rect width="1200" height="420" rx="30" fill="url(#bg)"/>

<circle cx="150" cy="120" r="120" fill="#2563eb22" filter="url(#blur)">
<animate attributeName="r"
values="120;145;120"
dur="7s"
repeatCount="indefinite"/>
</circle>

<circle cx="1030" cy="330" r="150" fill="#2563eb22" filter="url(#blur)">
<animate attributeName="r"
values="150;180;150"
dur="8s"
repeatCount="indefinite"/>
</circle>

<g stroke="#3b82f620">

<line x1="0" y1="60" x2="1200" y2="60"/>
<line x1="0" y1="120" x2="1200" y2="120"/>
<line x1="0" y1="180" x2="1200" y2="180"/>
<line x1="0" y1="240" x2="1200" y2="240"/>
<line x1="0" y1="300" x2="1200" y2="300"/>
<line x1="0" y1="360" x2="1200" y2="360"/>

<line x1="100" y1="0" x2="100" y2="420"/>
<line x1="200" y1="0" x2="200" y2="420"/>
<line x1="300" y1="0" x2="300" y2="420"/>
<line x1="400" y1="0" x2="400" y2="420"/>
<line x1="500" y1="0" x2="500" y2="420"/>
<line x1="600" y1="0" x2="600" y2="420"/>
<line x1="700" y1="0" x2="700" y2="420"/>
<line x1="800" y1="0" x2="800" y2="420"/>
<line x1="900" y1="0" x2="900" y2="420"/>
<line x1="1000" y1="0" x2="1000" y2="420"/>
<line x1="1100" y1="0" x2="1100" y2="420"/>

</g>

<text x="70" y="95"
fill="white"
font-size="42"
font-family="Segoe UI"
font-weight="700">
ABOUT
</text>

<text x="70" y="145"
fill="#8ab4ff"
font-size="22"
font-family="Segoe UI">
Developer Profile
</text>

<line
x1="70"
y1="175"
x2="310"
y2="175"
stroke="url(#line)"
stroke-width="3"/>

<g>

<rect
x="690"
y="60"
width="420"
height="270"
rx="18"
fill="#0f172acc"
stroke="#2563eb"/>

<text
x="720"
y="105"
fill="#7dd3fc"
font-size="18"
font-family="Consolas">
const developer = {
</text>

<text
x="740"
y="145"
fill="white"
font-size="17"
font-family="Consolas">
name: "WebTrusty",
</text>

<text
x="740"
y="180"
fill="white"
font-size="17"
font-family="Consolas">
role: "Full-Stack",
</text>

<text
x="740"
y="215"
fill="white"
font-size="17"
font-family="Consolas">
experience: "3+ Years",
</text>

<text
x="740"
y="250"
fill="white"
font-size="17"
font-family="Consolas">
focus: Premium UI
</text>

<text
x="720"
y="290"
fill="#7dd3fc"
font-size="18"
font-family="Consolas">
}
</text>

</g>

<g>

<circle cx="120" cy="310" r="6" fill="#3b82f6">
<animate attributeName="cy"
values="310;295;310"
dur="2.5s"
repeatCount="indefinite"/>
</circle>

<circle cx="170" cy="340" r="5" fill="#60a5fa">
<animate attributeName="cy"
values="340;325;340"
dur="2s"
repeatCount="indefinite"/>
</circle>

<circle cx="215" cy="300" r="4" fill="#93c5fd">
<animate attributeName="cy"
values="300;285;300"
dur="3s"
repeatCount="indefinite"/>
</circle>

</g>

</svg>
