<?xml version="1.0" encoding="UTF-8"?>
<svg xmlns="http://www.w3.org/2000/svg" viewBox="0 0 1600 600" width="1600" height="600">
<defs>
<linearGradient id="bg" x1="0" y1="0" x2="1" y2="1">
<stop offset="0%" stop-color="#020617"/>
<stop offset="55%" stop-color="#071224"/>
<stop offset="100%" stop-color="#0B1830"/>
</linearGradient>
<radialGradient id="a1" cx="15%" cy="20%" r="60%">
<stop offset="0%" stop-color="#3B82F6" stop-opacity=".22"/>
<stop offset="100%" stop-color="#3B82F6" stop-opacity="0"/>
</radialGradient>
<radialGradient id="a2" cx="85%" cy="75%" r="60%">
<stop offset="0%" stop-color="#60A5FA" stop-opacity=".16"/>
<stop offset="100%" stop-color="#60A5FA" stop-opacity="0"/>
</radialGradient>
</defs>
<rect width="1600" height="600" fill="url(#bg)"/>
<circle cx="180" cy="90" r="330" fill="url(#a1)">
<animate attributeName="opacity" values=".8;1;.8" dur="10s" repeatCount="indefinite"/>
</circle>
<circle cx="1450" cy="500" r="380" fill="url(#a2)">
<animate attributeName="opacity" values=".6;.9;.6" dur="12s" repeatCount="indefinite"/>
</circle>
<g stroke="#60A5FA" stroke-opacity=".045"><line x1="100" y1="0" x2="100" y2="600"/>
<line x1="200" y1="0" x2="200" y2="600"/>
<line x1="300" y1="0" x2="300" y2="600"/>
<line x1="400" y1="0" x2="400" y2="600"/>
<line x1="500" y1="0" x2="500" y2="600"/>
<line x1="600" y1="0" x2="600" y2="600"/>
<line x1="700" y1="0" x2="700" y2="600"/>
<line x1="800" y1="0" x2="800" y2="600"/>
<line x1="900" y1="0" x2="900" y2="600"/>
<line x1="1000" y1="0" x2="1000" y2="600"/>
<line x1="1100" y1="0" x2="1100" y2="600"/>
<line x1="1200" y1="0" x2="1200" y2="600"/>
<line x1="1300" y1="0" x2="1300" y2="600"/>
<line x1="1400" y1="0" x2="1400" y2="600"/>
<line x1="1500" y1="0" x2="1500" y2="600"/>
<line x1="0" y1="60" x2="1600" y2="60"/>
<line x1="0" y1="120" x2="1600" y2="120"/>
<line x1="0" y1="180" x2="1600" y2="180"/>
<line x1="0" y1="240" x2="1600" y2="240"/>
<line x1="0" y1="300" x2="1600" y2="300"/>
<line x1="0" y1="360" x2="1600" y2="360"/>
<line x1="0" y1="420" x2="1600" y2="420"/>
<line x1="0" y1="480" x2="1600" y2="480"/>
<line x1="0" y1="540" x2="1600" y2="540"/>

</g>
<text x="800" y="170" text-anchor="middle" fill="#60A5FA" font-family="Inter,Arial" font-size="18" letter-spacing="8">WEBTRUSTY</text>
<text x="800" y="270" text-anchor="middle" fill="#FFF" font-family="Inter,Arial" font-size="74" font-weight="700">Crafting Premium</text>
<text x="800" y="350" text-anchor="middle" fill="#FFF" font-family="Inter,Arial" font-size="74" font-weight="700">Digital Experiences</text>
<text x="800" y="395" text-anchor="middle" fill="#CBD5E1" font-family="Inter,Arial" font-size="20">React • Next.js • TypeScript • GSAP • Three.js • AI</text>
<line x1="620" y1="445" x2="980" y2="445" stroke="#3B82F6" stroke-opacity=".4"/>
<circle r="5" cy="445" fill="#60A5FA">
<animate attributeName="cx" values="620;980;620" dur="6s" repeatCount="indefinite"/>
</circle>
<circle cx="180" cy="120" r="2" fill="#60A5FA"><animate attributeName="cy" values="120;110;120" dur="7s" repeatCount="indefinite"/></circle>
<circle cx="280" cy="500" r="2" fill="#60A5FA"><animate attributeName="cy" values="500;490;500" dur="7s" repeatCount="indefinite"/></circle>
<circle cx="480" cy="90" r="2" fill="#60A5FA"><animate attributeName="cy" values="90;80;90" dur="7s" repeatCount="indefinite"/></circle>
<circle cx="650" cy="520" r="2" fill="#60A5FA"><animate attributeName="cy" values="520;510;520" dur="7s" repeatCount="indefinite"/></circle>
<circle cx="980" cy="120" r="2" fill="#60A5FA"><animate attributeName="cy" values="120;110;120" dur="7s" repeatCount="indefinite"/></circle>
<circle cx="1250" cy="420" r="2" fill="#60A5FA"><animate attributeName="cy" values="420;410;420" dur="7s" repeatCount="indefinite"/></circle>
<circle cx="1450" cy="170" r="2" fill="#60A5FA"><animate attributeName="cy" values="170;160;170" dur="7s" repeatCount="indefinite"/></circle>
</svg>